<?xml version="1.0" encoding="UTF-8" standalone="no"?>
<!-- Created with Inkscape (http://www.inkscape.org/) -->

<svg
   xmlns:osb="http://www.openswatchbook.org/uri/2009/osb"
   xmlns:dc="http://purl.org/dc/elements/1.1/"
   xmlns:cc="http://creativecommons.org/ns#"
   xmlns:rdf="http://www.w3.org/1999/02/22-rdf-syntax-ns#"
   xmlns:svg="http://www.w3.org/2000/svg"
   xmlns="http://www.w3.org/2000/svg"
   xmlns:sodipodi="http://sodipodi.sourceforge.net/DTD/sodipodi-0.dtd"
   xmlns:inkscape="http://www.inkscape.org/namespaces/inkscape"
   id="svg2"
   version="1.1"
   inkscape:version="0.48.3.1 r9886"
   width="12768.29"
   height="13185.646"
   xml:space="preserve"
   sodipodi:docname="circuito2013.svg"><metadata
     id="metadata8"><rdf:RDF><cc:Work
         rdf:about=""><dc:format>image/svg+xml</dc:format><dc:type
           rdf:resource="http://purl.org/dc/dcmitype/StillImage" /><dc:title /></cc:Work></rdf:RDF></metadata><defs
     id="defs6"><linearGradient
       id="linearGradient5427"><stop
         style="stop-color:#00fd7f;stop-opacity:0.24705882;"
         offset="0"
         id="stop5447" /><stop
         style="stop-color:#00fcff;stop-opacity:0;"
         offset="1"
         id="stop5431" /></linearGradient><linearGradient
       id="linearGradient5407"
       osb:paint="solid"><stop
         style="stop-color:#00ff00;stop-opacity:1;"
         offset="0"
         id="stop5409" /></linearGradient><clipPath
       clipPathUnits="userSpaceOnUse"
       id="clipPath18"><path
         d="m 273,0 6380,0 0,6183 -6380,0 0,-6183"
         id="path20"
         inkscape:connector-curvature="0" /></clipPath><clipPath
       clipPathUnits="userSpaceOnUse"
       id="clipPath44"><path
         d="m 273,0 6380,0 0,6183 -6380,0 0,-6183"
         id="path46"
         inkscape:connector-curvature="0" /></clipPath><clipPath
       clipPathUnits="userSpaceOnUse"
       id="clipPath56"><path
         d="m 273,0 6380,0 0,6183 -6380,0 0,-6183"
         id="path58"
         inkscape:connector-curvature="0" /></clipPath></defs><sodipodi:namedview
     pagecolor="#ffffff"
     bordercolor="#666666"
     borderopacity="1"
     objecttolerance="10"
     gridtolerance="10"
     guidetolerance="10"
     inkscape:pageopacity="0"
     inkscape:pageshadow="2"
     inkscape:window-width="1535"
     inkscape:window-height="876"
     id="namedview4"
     showgrid="false"
     inkscape:document-units="cm"
     units="cm"
     inkscape:zoom="0.0475"
     inkscape:cx="7699.9144"
     inkscape:cy="6623.5446"
     inkscape:window-x="65"
     inkscape:window-y="24"
     inkscape:window-maximized="1"
     inkscape:current-layer="g12"
     fit-margin-left="1.1"
     fit-margin-top="1.1"
     fit-margin-right="1.1"
     fit-margin-bottom="1.1" /><g
     id="g10"
     inkscape:groupmode="layer"
     inkscape:label="circuito2013"
     transform="matrix(1.25,0,0,-1.25,5857.2955,7082.9225)"><g
       id="g12"
       transform="matrix(1.8345266,0,0,1.8345266,-5777.3856,-5128.0107)"><g
   id="g14"><g
     id="g16"
     clip-path="url(#clipPath18)"><path
   d="m 4953,5776 8,5 8,4 8,4 8,4 8,4 9,3 8,4 9,4 8,3 9,4 9,3 8,3 9,3 9,3 9,3 9,3 9,3 9,2 9,3 10,2 9,2 9,2 9,2 10,2 9,2 10,1 9,2 10,1 9,2 10,1 10,1 9,1 10,0 10,1 9,1 10,0 10,0 9,0 10,0 10,0 10,0 9,0 10,-1 10,0 9,-1 10,-1 10,-1 9,-1 10,-2 10,-1 9,-1 10,-2 9,-2 10,-2 9,-2 10,-2 9,-2 10,-3 9,-2 9,-3 9,-2 9,-3 10,-3 9,-3 9,-4 9,-3 8,-3 9,-4 9,-3 9,-4 8,-4 9,-4 8,-4 9,-4 8,-4 8,-4 9,-5 8,-4 8,-5 8,-5 7,-4 8,-5 8,-5 8,-5 7,-5 8,-5 7,-5 7,-6 7,-5 8,-6 7,-5 7,-6 7,-6 7,-6 7,-6 7,-6 7,-6 7,-7 6,-6 7,-7 7,-7 6,-6 7,-7 6,-7 6,-7 7,-8 6,-7 6,-7 6,-8 6,-7 6,-8 5,-7 6,-8 6,-8 5,-8 5,-8 6,-8 5,-8 5,-9 5,-8 4,-9 5,-8 5,-9 4,-8 5,-9 4,-9 4,-8 4,-9 4,-9 4,-9 4,-9 3,-9 4,-9 3,-9 3,-10 3,-9 3,-9 3,-9 3,-10 2,-9 3,-9 2,-10 2,-9 2,-10 2,-9 2,-10 2,-9 2,-9 1,-10 1,-9 2,-10 1,-9 1,-10 0,-9 1,-10 1,-9 0,-10 1,-9 0,-9 0,-10 0,-9 0,-9 0,-10 -1,-9 0,-9 -1,-9 0,-9 -1,-10 -1,-9 -1,-9 -1,-9 -2,-9 -1,-9 -1,-9 -2,-8 -2,-9 -1,-9 -2,-9 -2,-9 -3,-9 -2,-9 -2,-9 -3,-9 -2,-9 -3,-9 -3,-9 -3,-9 -3,-9 -3,-9 -4,-8 -3,-9 -4,-9 -3,-9 -4,-9 -4,-8 -4,-9 -4,-9 -5,-8 -4,-9 -5,-8 -4,-9 -5,-8 -5,-8 -5,-9 -5,-8 -5,-8 -6,-8 -5,-8 -6,-8 -5,-8 -6,-8 -6,-8 -6,-7 -6,-8 -6,-7 -7,-8 -6,-7 -7,-7 -6,-8 -7,-7 -6,-7 -7,-7 -7,-6 -7,-7 -7,-7 -8,-6 -7,-7 -7,-6 -7,-6 -8,-6 -7,-6 -8,-6 -8,-6 -8,-6 -7,-5 -8,-6 -8,-5 -8,-5 -8,-6 -8,-5 -8,-4 -8,-5 -9,-5 -8,-5 -8,-4 -8,-4 -9,-4 -8,-5 -9,-4 -8,-3 -8,-4 -9,-4 -8,-3 -9,-4 -8,-3 -9,-3 -8,-3 -9,-3 -2,-1 -1,0 -1,0 0,-1 -2,0 -17,-8 -17,-7 -17,-8 -16,-8 -16,-8 -16,-8 -16,-8 -16,-8 -15,-9 -15,-8 -15,-9 -14,-9 -14,-8 -14,-9 -14,-10 -14,-9 -13,-9 -13,-10 -13,-9 -12,-10 -13,-10 -12,-10 -12,-10 -11,-10 -11,-11 -11,-10 -11,-11 -11,-10 -10,-11 -10,-11 -10,-11 -10,-11 -9,-12 -9,-11 -9,-11 -8,-12 -9,-12 -8,-12 -8,-12 -7,-12 -7,-12 -8,-12 -6,-13 -7,-13 -6,-12 -6,-13 -6,-13 -6,-13 -5,-13 -5,-14 -5,-13 -5,-14 -4,-13 -4,-14 -4,-14 -4,-14 -3,-14 -3,-14 -3,-15 -3,-14 -2,-15 -2,-15 -2,-15 -2,-15 -1,-15 -1,-15 -1,-15 -1,-16 0,-15 0,-16 0,-16 0,-16 1,-16 0,-16 2,-16 1,-17 1,-16 2,-17 2,-17 3,-16 2,-17 3,-18 3,-17 3,-17 4,-18 4,-17 4,-18 4,-18 5,-18 4,-18 6,-18 5,-19 5,-18 6,-19 6,-18 6,-19 7,-19 7,-19 7,-19 7,-19 8,-20 7,-19 8,-20 9,-20 8,-20 9,-20 9,-20 9,-20 10,-20 9,-21 10,-20 11,-21 10,-21 11,-21 11,-21 11,-21 12,-21 11,-22 12,-21 13,-22 12,-22 13,-22 13,-22 13,-22 13,-22 14,-23 14,-22 14,-23 15,-23 14,-22 15,-23 15,-24 16,-23 16,-23 16,-24 16,-23 16,-24 17,-24 17,-24 17,-24 17,-24 18,-24 18,-25 18,-24 18,-25 19,-25 19,-24 19,-25 20,-26 19,-25 20,-25 20,-26 21,-25 20,-26 21,-26 11,-13 5,-6 1,-1 0,-1 3,-3 6,-7 6,-7 6,-7 6,-7 5,-8 6,-7 5,-7 6,-8 5,-7 5,-8 5,-8 5,-8 5,-8 5,-8 5,-8 5,-8 4,-8 5,-8 4,-9 5,-8 4,-9 4,-8 4,-9 4,-9 4,-9 4,-9 3,-8 4,-9 3,-10 3,-9 3,-9 3,-9 3,-9 3,-10 3,-9 2,-9 3,-10 2,-9 2,-10 2,-9 2,-10 2,-9 2,-10 1,-10 2,-9 1,-10 1,-9 1,-10 1,-10 1,-10 0,-9 1,-10 0,-10 1,-9 0,-10 0,-10 0,-9 -1,-10 0,-10 -1,-9 0,-10 -1,-10 -1,-9 -1,-10 -1,-9 -1,-10 -1,-9 -2,-9 -1,-10 -2,-9 -2,-9 -2,-10 -2,-9 -2,-9 -2,-9 -3,-9 -2,-9 -3,-9 -2,-9 -3,-8 -3,-9 -3,-9 -3,-8 -3,-9 -4,-8 -3,-9 -3,-8 -4,-8 -4,-9 -3,-8 -4,-8 -4,-8 -5,-9 -4,-8 -4,-8 -5,-8 -4,-8 -5,-8 -5,-8 -5,-8 -5,-8 -5,-8 -5,-7 -5,-8 -6,-8 -5,-8 -6,-7 -6,-8 -6,-7 -6,-8 -6,-7 -6,-7 -7,-7 -6,-8 -7,-7 -6,-7 -7,-7 -7,-6 -7,-7 -7,-7 -7,-6 -7,-7 -7,-6 -8,-7 -7,-6 -8,-6 -7,-6 -8,-6 -8,-6 -8,-5 -8,-6 -8,-6 -8,-5 -8,-5 -8,-5 -9,-5 -8,-5 -9,-5 -8,-5 -9,-5 -8,-4 -9,-5 -9,-4 -8,-4 -9,-4 -9,-4 -9,-4 -9,-3 -9,-4 -9,-3 -9,-4 -9,-3 -9,-3 -9,-3 -9,-3 -9,-2 -9,-3 -9,-2 -9,-3 -10,-2 -9,-2 -9,-2 -9,-2 -9,-1 -9,-2 -10,-1 -9,-2 -9,-1 -9,-1 -9,-1 -9,-1 -9,-1 -9,0 -9,-1 -9,0 -42,-2 -41,-1 -42,-1 -42,-1 -43,-2 -43,-1 -43,-1 -43,-2 -44,-1 -43,-2 -45,-2 -44,-1 -45,-2 -45,-2 -45,-1 -45,-2 -46,-2 -46,-2 -46,-2 -46,-1 -47,-2 -46,-2 -47,-2 -47,-2 -47,-2 -48,-2 -47,-2 -48,-3 -48,-2 -48,-2 -48,-2 -48,-2 -49,-2 -48,-3 -98,-4 -98,-5 -98,-4 -99,-5 -99,-5 -99,-5 -99,-4 -199,-10 -50,-2 -12,-1 -6,0 -1,0 -1,-1 -7,0 -13,-2 -13,-1 -13,-1 -13,-1 -13,-1 -13,0 -14,-1 -13,1 -14,0 -13,0 -14,1 -13,1 -14,2 -13,1 -14,2 -13,2 -14,3 -13,3 -14,2 -13,4 -14,3 -13,4 -13,4 -14,4 -13,4 -13,5 -13,5 -13,5 -12,6 -13,6 -12,6 -13,6 -12,6 -12,7 -12,7 -12,7 -12,7 -11,8 -12,7 -11,8 -11,8 -11,9 -10,8 -11,9 -10,8 -10,9 -10,10 -10,9 -9,9 -9,10 -9,9 -9,10 -9,10 -8,10 -8,10 -8,11 -8,10 -8,11 -7,10 -8,11 -7,12 -7,11 -7,11 -6,12 -7,12 -6,12 -6,12 -6,12 -5,13 -6,12 -5,13 -5,13 -4,13 -5,13 -4,13 -4,13 -3,14 -4,13 -3,13 -3,14 -3,14 -2,13 -2,14 -2,14 -2,14 -1,13 -1,14 -1,14 0,14 -1,14 0,14 0,13 1,14 1,14 1,14 1,13 2,14 1,13 2,14 3,13 2,13 3,14 3,13 3,13 4,13 3,12 4,13 4,13 4,12 5,12 5,12 0,2 1,0 0,1 3,5 11,20 12,20 11,20 11,20 11,20 11,20 11,20 10,19 11,20 10,19 10,19 10,19 10,19 10,19 10,19 9,19 10,18 9,19 9,18 9,19 9,18 9,18 8,18 9,18 8,18 8,18 9,17 8,18 7,17 8,17 8,18 7,17 7,17 8,17 7,17 7,16 6,17 7,16 7,17 6,16 6,16 7,16 6,16 5,16 6,16 6,16 5,16 6,15 5,15 5,16 5,15 5,15 5,15 4,15 5,15 4,15 4,14 4,15 4,14 4,14 4,15 3,14 4,14 3,14 3,13 3,14 3,14 3,13 2,14 3,13 2,13 3,13 2,13 2,13 2,13 1,13 2,12 1,13 2,12 1,12 1,13 1,12 1,12 0,12 1,11 0,12 1,12 0,11 0,12 0,11 -1,11 0,11 0,11 -1,11 -1,11 -1,11 -1,10 -1,11 -1,10 -2,10 -1,10 -2,11 -2,10 -2,9 -2,10 -2,10 -2,9 -3,10 -2,9 -3,10 -3,9 -3,9 -3,9 -3,9 -3,9 -4,8 -3,9 -4,8 -4,9 -4,8 -4,8 -5,8 -4,8 -5,8 -4,8 -5,7 -5,8 -5,8 -5,7 -6,7 -5,7 -6,7 -5,7 -6,7 -6,7 -6,7 -6,6 -7,7 -6,6 -7,6 -7,7 -7,6 -7,6 -7,5 -7,6 -7,6 -8,5 -8,6 -7,5 -8,5 -8,6 -9,5 -8,5 -8,5 -9,4 -9,5 -9,5 -9,4 -9,4 -9,5 -9,4 -10,4 -9,4 -10,4 -10,3 -10,4 -10,4 -10,3 -11,3 -10,4 -11,3 -11,3 -11,3 -11,3 -11,2 -11,3 -12,3 -11,2 -12,2 -12,3 -12,2 -12,2 -12,2 -13,2 -12,1 -13,2 -13,2 -12,1 -13,1 -14,2 -13,1 -13,1 -14,1 -14,0 -13,1 -14,1 -14,0 -15,1 -14,0 -14,0 -15,1 -15,0 -14,0 -15,-1 -16,0 -15,0 -15,-1 -16,0 -15,-1 -16,-1 -16,-1 -16,-1 -16,-1 -4,0 -1,0 -2,0 -3,0 -13,0 -13,0 -13,1 -13,0 -13,1 -14,1 -13,2 -13,2 -13,1 -14,3 -13,2 -14,3 -13,3 -13,3 -14,3 -13,4 -14,4 -13,4 -13,5 -13,5 -13,5 -14,5 -13,6 -13,6 -12,6 -13,6 -13,7 -12,7 -13,7 -12,7 -12,8 -12,8 -12,8 -12,8 -11,9 -12,8 -11,9 -11,10 -11,9 -11,10 -10,9 -10,10 -10,11 -10,10 -10,11 -9,10 -9,11 -9,11 -9,11 -8,12 -9,11 -8,12 -7,11 -8,12 -7,12 -7,12 -7,12 -6,12 -6,12 -6,12 -6,13 -6,12 -5,12 -5,13 -5,12 -4,12 -4,13 -4,12 -4,13 -4,12 -3,13 -3,12 -3,13 -3,13 -2,13 -2,13 -2,13 -2,13 -2,13 -1,14 -1,13 -1,14 0,14 -1,13 0,14 0,14 1,14 0,14 1,14 2,14 1,14 2,14 2,14 2,14 3,14 3,14 3,13 3,14 4,14 4,14 4,14 5,13 5,14 5,13 5,14 5,13 6,13 6,13 7,13 6,13 7,12 7,13 7,12 8,12 8,12 8,12 8,12 8,11 9,12 8,11 9,11 9,10 10,11 9,10 10,10 10,10 10,10 10,9 10,9 10,9 11,9 10,9 11,8 11,8 10,8 11,7 11,8 11,7 11,7 12,6 11,7 3,1 1,1 1,0 2,1 14,7 29,14 58,27 115,54 461,218 462,217 230,109 116,54 28,14 15,7 7,3 2,1 1,1 1,0 12,7 12,6 12,6 13,6 12,5 13,5 13,6 12,4 13,5 14,5 13,4 13,4 14,3 13,4 14,3 13,3 14,3 14,2 14,2 14,2 14,2 14,1 14,1 14,1 14,1 14,0 14,0 14,0 14,-1 14,-1 14,-1 14,-1 14,-1 13,-2 14,-2 14,-3 13,-2 14,-3 13,-3 13,-3 14,-4 13,-4 13,-4 12,-4 7,-2 1,0 1,-1 6,-2 12,-4 23,-8 24,-8 24,-7 23,-7 24,-7 24,-6 23,-6 24,-5 23,-6 23,-5 24,-4 23,-5 23,-4 23,-4 24,-3 23,-3 22,-3 23,-3 23,-2 23,-2 22,-2 23,-2 22,-1 22,-1 22,-1 22,0 22,-1 22,0 21,0 22,0 21,1 21,0 22,1 20,1 21,1 21,2 20,1 20,2 21,2 19,2 20,2 20,2 19,3 19,2 19,3 19,3 19,3 18,3 18,3 18,3 18,4 18,3 17,4 17,3 17,4 16,3 17,4 16,4 16,4 15,4 16,4 15,4 15,4 14,4 14,4 14,4 14,4 14,4 13,4 13,4 12,4 12,4 12,4 12,4 11,4 11,3 11,4 10,4 10,3 10,4 9,4 9,3 9,3 8,4 8,3 8,3 7,3 7,2 7,3 6,3 6,2 5,2 5,3 5,2 4,1 4,2 3,2 3,1 3,1 2,1 2,1 1,1 1,0 1,0 -1,0"
   style="fill:none;stroke:#000000;stroke-width:29.17270877;stroke-linecap:round;stroke-linejoin:round;stroke-miterlimit:10;stroke-opacity:1;stroke-dasharray:none"
   id="path22"
   inkscape:connector-curvature="0" /><path
   d="m 5643,1680 11,-11 10,-12 9,-12 10,-12 9,-12 9,-13 8,-14 8,-13 8,-14 7,-15 7,-14 7,-15 6,-15 5,-15 5,-16 5,-15 4,-16 3,-16 3,-16 3,-16 1,-16 2,-17 1,-16 0,-16 0,-16 -1,-16 -1,-16 -1,-16 -3,-16 -2,-16 -3,-15 -4,-15 -4,-15 -4,-15 -5,-14 -5,-15 -6,-14 -6,-14 -6,-13 -7,-14 -8,-14 -8,-13 -8,-13 -9,-14 -9,-12 -10,-13 -10,-12 -11,-13 -11,-11 -12,-12 -11,-11 -13,-11 -12,-10 -13,-10 -13,-10 -14,-9 -14,-8 -14,-9 -14,-7 -15,-8 -14,-6 -15,-7 -15,-6 -15,-5 -15,-5 -16,-4 -15,-4 -15,-3 -16,-3 -15,-2 -15,-2 -15,-1 -8,-1 -3,0 -2,0 -1,0 -1,0 -3,0 -4,0 -37,-2 -36,-2 -37,-1 -37,-2 -37,-1 -37,-2 -38,-1 -37,-2 -76,-3 -76,-3 -76,-4 -77,-3 -77,-3 -78,-3 -78,-4 -79,-3 -79,-4 -79,-3 -80,-3 -80,-4 -80,-3 -81,-4 -80,-3 -81,-4 -82,-3 -81,-3 -82,-4 -82,-4 -82,-3 -164,-7 -165,-7 -165,-7 -41,-2 -11,0 -5,-1 -2,0 -2,0 -4,0 -15,-2 -16,-1 -15,-1 -16,0 -15,0 -16,1 -16,1 -16,2 -16,2 -16,3 -15,3 -16,4 -16,4 -15,5 -15,5 -16,6 -14,6 -15,7 -15,7 -14,8 -14,8 -13,9 -14,8 -13,10 -12,9 -13,10 -11,11 -12,10 -11,11 -11,11 -10,12 -10,11 -9,12 -10,13 -4,6 -5,7 -4,6 -4,7 -4,7 -4,7 -4,7 -4,7 -4,7 -3,7 -4,8 -3,7 -3,8 -3,8 -3,7 -3,8 -2,8 -3,9 -2,8 -2,8 -2,9 -2,8 -2,9 -1,8 -2,9 -1,9 -1,9 -1,9 -1,9 0,10 -1,9 0,9 0,10 0,9 0,10 1,10 0,10 1,9 1,10 1,10 2,10 1,11 2,10 1,10 2,10 3,11 2,10 2,11 3,10 3,11 3,10 3,11 3,10 4,11 3,11 4,11 1,2 1,2 0,1 2,2 2,5 21,37 21,36 20,36 20,36 20,36 19,35 18,36 19,34 17,35 18,34 17,34 16,34 16,33 16,33 15,33 15,33 14,32 14,32 14,32 13,31 13,31 12,31 12,30 11,30 11,30 11,30 10,29 10,29 9,29 9,29 8,28 8,28 8,27 7,28 7,27 6,26 6,27 5,26 5,26 5,25 4,25 4,25 3,25 3,24 3,24 2,24 1,24 2,23 0,23 1,22 0,23 -1,22 -1,21 -1,22 -2,21 -2,21 -3,20 -3,20 -4,20 -4,20 -4,19 -5,19 -5,19 -6,18 -6,18 -6,18 -7,18 -8,17 -7,17 -9,17 -8,16 -9,16 -10,16 -10,15 -10,15 -11,15 -11,14 -12,15 -12,14 -13,13 -13,13 -13,13 -14,13 -14,13 -15,12 -15,11 -16,12 -16,11 -16,11 -17,10 -17,11 -18,10 -18,9 -19,10 -19,9 -19,8 -20,9 -20,8 -21,8 -21,7 -22,7 -22,7 -23,7 -23,6 -23,6 -24,6 -24,5 -25,5 -25,5 -25,4 -26,4 -27,4 -27,4 -27,3 -28,3 -28,2 -29,3 -29,1 -29,2 -30,1 -30,1 -31,1 -31,0 -32,0 -32,0 -33,0 -33,-1 -4,0 -2,0 -1,0 -1,0 -2,-1 -4,0 -7,0 -15,1 -15,1 -15,1 -15,2 -16,2 -15,3 -15,3 -16,4 -15,4 -15,5 -16,5 -15,6 -15,6 -14,7 -15,7 -14,8 -15,8 -14,9 -13,9 -14,10 -13,10 -13,10 -12,11 -12,11 -12,12 -11,12 -10,12 -11,13 -10,13 -9,13 -9,13 -9,14 -8,14 -7,14 -7,14 -7,14 -6,14 -5,14 -5,14 -5,15 -4,14 -4,14 -3,15 -3,14 -3,15 -2,15 -1,16 -1,15 -1,16 0,15 0,16 1,16 1,16 2,16 2,16 3,16 3,16 4,16 5,16 5,15 5,16 6,15 6,15 7,15 8,15 8,15 8,14 9,14 9,13 10,13 10,13 10,13 11,12 11,11 11,12 12,10 12,11 12,10 12,9 13,9 13,9 12,8 13,8 13,7 7,3 3,2 1,0 0,1 2,0 3,2 6,2 48,23 96,46 771,363 385,181 192,91 24,11 3,2 2,0 1,1 2,1 3,2 14,7 14,6 15,6 14,6 15,5 15,5 16,4 15,4 16,3 16,3 16,2 16,2 16,1 16,1 16,0 16,0 16,-1 16,-1 15,-1 16,-3 16,-2 15,-4 15,-3 15,-4 15,-5 8,-2 3,-2 1,0 1,0 1,0 3,-1 11,-4 22,-7 22,-7 22,-7 21,-6 22,-6 22,-6 22,-5 22,-5 21,-6 22,-4 22,-5 21,-4 22,-4 21,-4 22,-4 21,-3 21,-4 22,-3 21,-2 21,-3 21,-2 21,-3 21,-2 21,-1 21,-2 21,-1 20,-2 21,-1 20,-1 21,0 20,-1 20,0 21,0 20,-1 20,1 19,0 20,0 20,1 19,0 20,1 19,1 19,1 19,2 19,1 19,1 19,2 18,2 19,1 18,2 18,2 18,2 18,3 18,2 17,2 18,3 17,3 17,2 17,3 17,3 16,3 17,3 16,3 16,3 16,3 16,3 16,3 15,4 15,3 16,3 14,4 15,3 15,4 14,3 14,4 14,3 14,4 13,4 13,3 14,4 12,3 13,4 13,4 12,3 12,4 12,3 11,4 11,4 11,3 11,4 11,3 10,4 10,3 10,3 10,4 9,3 10,3 8,3 9,4 8,3 9,3 7,3 8,2 7,3 7,3 7,3 7,2 6,3 6,2 5,2 6,2 5,3 4,2 5,1 4,2 4,2 4,1 3,2 3,1 2,1 3,1 2,1 1,1 2,1 1,0 1,0 0,1 1,0 3,2 14,7 14,6 14,6 14,6 15,5 15,5 15,5 16,4 15,3 16,3 16,3 16,2 16,1 16,1 16,1 17,0 16,-1 16,-1 16,-1 17,-3 16,-2 16,-3 15,-4 16,-4 15,-5 16,-5 14,-5 15,-6 15,-7 14,-6 14,-8 13,-7 13,-8 13,-8 13,-9 12,-9 12,-9 12,-10 11,-10 12,-11 11,-11 11,-12 10,-11 11,-13 9,-12 10,-13 9,-14 9,-13 8,-14 8,-15 7,-14 7,-15 6,-15 6,-15 6,-15 5,-16 4,-15 4,-16 4,-16 3,-16 2,-16 2,-15 1,-16 1,-16 0,-16 0,-15 0,-16 -1,-15 -2,-15 -2,-15 -2,-15 -3,-15 -3,-15 -4,-15 -4,-15 -5,-15 -6,-15 -5,-15 -7,-15 -6,-14 -8,-14 -7,-15 -9,-14 -8,-13 -9,-14 -10,-13 -10,-13 -10,-12 -11,-12 -11,-12 -12,-12 -12,-11 -12,-10 -12,-11 -13,-10 -13,-9 -13,-9 -14,-8 -14,-8 -13,-8 -14,-7 -14,-6 -15,-6 -14,-6 -14,-5 -4,-1 -1,0 0,-1 -2,0 -5,-2 -22,-9 -21,-9 -21,-10 -21,-9 -20,-9 -20,-10 -20,-9 -19,-10 -19,-10 -19,-10 -18,-10 -18,-11 -17,-10 -18,-11 -17,-10 -16,-11 -16,-11 -16,-11 -16,-11 -15,-11 -15,-12 -15,-11 -14,-12 -14,-12 -14,-11 -13,-12 -13,-12 -13,-12 -12,-12 -13,-13 -12,-12 -11,-12 -11,-13 -11,-13 -11,-12 -10,-13 -11,-13 -9,-13 -10,-13 -9,-13 -9,-14 -9,-13 -8,-13 -9,-14 -8,-14 -7,-13 -8,-14 -7,-14 -7,-14 -6,-14 -7,-14 -6,-14 -6,-14 -5,-14 -6,-14 -5,-15 -5,-14 -4,-14 -5,-15 -4,-14 -4,-15 -3,-15 -4,-15 -3,-14 -3,-15 -3,-15 -3,-15 -2,-15 -2,-15 -2,-15 -2,-15 -1,-15 -2,-16 -1,-15 -1,-15 0,-15 -1,-16 0,-15 0,-15 0,-16 0,-15 1,-16 0,-15 1,-16 1,-15 1,-16 2,-16 1,-15 2,-16 2,-15 2,-16 2,-16 2,-16 3,-15 2,-16 3,-16 3,-15 3,-16 4,-16 3,-16 4,-15 3,-16 4,-16 4,-16 4,-15 9,-32 9,-31 10,-32 10,-31 11,-31 11,-31 11,-32 12,-31 13,-30 12,-31 13,-31 14,-30 14,-31 14,-30 14,-30 15,-30 14,-30 16,-29 15,-29 15,-29 16,-29 16,-29 16,-28 16,-28 17,-28 16,-27 17,-27 16,-27 17,-26 16,-27 17,-25 17,-26 16,-25 17,-25 16,-24 17,-24 16,-23 16,-24 16,-22 16,-22 16,-22 16,-21 15,-21 15,-21 8,-10 7,-9 8,-10 7,-10 7,-9 7,-10 8,-9 7,-9 7,-9 7,-9 6,-8 7,-9 7,-8 6,-9 7,-8 6,-8 6,-7 7,-8 6,-8 6,-7 6,-7 5,-7 6,-7 6,-7 5,-7 5,-6 6,-6 5,-6 5,-6 5,-6 4,-6 5,-5 4,-5 5,-6 4,-5 4,-4 4,-5 4,-4 4,-5 3,-4 4,-4 3,-3 3,-4 3,-3 3,-4 2,-3 3,-2 2,-3 2,-2 2,-3 2,-2 2,-2 1,-1 1,-2 1,-1 1,-1 1,-1 1,-1"
   style="fill:none;stroke:#000000;stroke-width:29.17270877;stroke-linecap:round;stroke-linejoin:round;stroke-miterlimit:10;stroke-opacity:1;stroke-dasharray:none"
   id="path24"
   inkscape:connector-curvature="0" /><path
   d="m 616,5795 -1,-137"
   style="fill:none;stroke:#000000;stroke-width:6;stroke-linecap:round;stroke-linejoin:round;stroke-miterlimit:10;stroke-opacity:1;stroke-dasharray:none"
   id="path26"
   inkscape:connector-curvature="0" /><path
   d="m 1395,5789 -1,-137"
   style="fill:none;stroke:#000000;stroke-width:6;stroke-linecap:round;stroke-linejoin:round;stroke-miterlimit:10;stroke-opacity:1;stroke-dasharray:none"
   id="path28"
   inkscape:connector-curvature="0" /><path
   d="m 655,5677 700,-5"
   style="fill:none;stroke:#000000;stroke-width:6;stroke-linecap:round;stroke-linejoin:round;stroke-miterlimit:10;stroke-opacity:1;stroke-dasharray:none"
   id="path30"
   inkscape:connector-curvature="0" /><g
   id="g32"><path
     d="m 655,5683 -1,-13 -38,7 39,6 z"
     style="fill:#000000;fill-opacity:1;fill-rule:nonzero;stroke:none"
     id="path34"
     inkscape:connector-curvature="0" /></g><g
   id="g36"><path
     d="m 1355,5678 0,-13 39,6 -39,7 z"
     style="fill:#000000;fill-opacity:1;fill-rule:nonzero;stroke:none"
     id="path38"
     inkscape:connector-curvature="0" /></g><text
   xml:space="preserve"
   style="font-size:372.09597778px;font-style:italic;font-weight:normal;line-height:125%;letter-spacing:0px;word-spacing:0px;fill:#000000;fill-opacity:1;stroke:none;font-family:Sans;-inkscape-font-specification:Sans Italic"
   x="3612.2017"
   y="-3278.7031"
   id="text3829"
   sodipodi:linespacing="125%"
   transform="scale(0.83519213,-1.1973293)"><tspan
     sodipodi:role="line"
     id="tspan3831"
     x="3612.2017"
     y="-3278.7031">152%</tspan></text>

</g></g><g
   id="g40"><g
     id="g42"
     clip-path="url(#clipPath44)"><text
   transform="matrix(1,0,0,-1,975,5685)"
   id="text48"><tspan
     style="font-size:54px;font-variant:normal;font-weight:normal;writing-mode:lr-tb;fill:#000000;fill-opacity:1;fill-rule:nonzero;stroke:none;font-family:Arial;-inkscape-font-specification:ArialMT"
     x="0 30.024"
     y="0"
     sodipodi:role="line"
     id="tspan50">50</tspan></text>



</g></g><g
   id="g52"><g
     id="g54"
     clip-path="url(#clipPath56)"><path
   d="m 617,5485 0,-80"
   style="fill:none;stroke:#000000;stroke-width:6;stroke-linecap:round;stroke-linejoin:round;stroke-miterlimit:10;stroke-opacity:1;stroke-dasharray:none"
   id="path60"
   inkscape:connector-curvature="0" /><path
   d="m 773,5486 0,-80"
   style="fill:none;stroke:#000000;stroke-width:6;stroke-linecap:round;stroke-linejoin:round;stroke-miterlimit:10;stroke-opacity:1;stroke-dasharray:none"
   id="path62"
   inkscape:connector-curvature="0" /><path
   d="m 656,5425 78,0"
   style="fill:none;stroke:#000000;stroke-width:6;stroke-linecap:round;stroke-linejoin:round;stroke-miterlimit:10;stroke-opacity:1;stroke-dasharray:none"
   id="path64"
   inkscape:connector-curvature="0" /><g
   id="g66"><path
     d="m 656,5431 0,-13 -39,7 39,6 z"
     style="fill:#000000;fill-opacity:1;fill-rule:nonzero;stroke:none"
     id="path68"
     inkscape:connector-curvature="0" /></g><g
   id="g70"><path
     d="m 734,5431 0,-13 39,7 -39,6 z"
     style="fill:#000000;fill-opacity:1;fill-rule:nonzero;stroke:none"
     id="path72"
     inkscape:connector-curvature="0" /></g><text
   transform="matrix(1,0,0,-1,629,5442)"
   id="text74"><tspan
     style="font-size:54px;font-variant:normal;font-weight:normal;writing-mode:lr-tb;fill:#000000;fill-opacity:1;fill-rule:nonzero;stroke:none;font-family:Arial;-inkscape-font-specification:ArialMT"
     x="0 30.024 60.048 75.059998 105.084"
     y="0"
     sodipodi:role="line"
     id="tspan76">10,01</tspan></text>



<path
   d="m 5481,1508 5,-6 5,-7 5,-7 4,-7 4,-8 5,-8 4,-7 3,-8 4,-8 3,-9 3,-8 3,-9 2,-8 2,-9 2,-9 2,-9 1,-9 1,-9 0,-9 1,-9 0,-9 0,-9 -1,-9 -1,-9 -1,-9 -1,-8 -2,-9 -2,-9 -2,-8 -3,-8 -2,-8 -3,-8 -3,-8 -4,-8 -3,-8 -4,-7 -4,-8 -5,-7 -4,-7 -5,-7 -5,-8 -6,-6 -6,-7 -5,-7 -7,-6 -6,-7 -7,-6 -6,-6 -7,-5 -8,-6 -7,-5 -8,-5 -7,-4 -8,-5 -8,-4 -8,-4 -9,-3 -8,-4 -8,-3 -9,-3 -8,-2 -9,-2 -8,-2 -9,-2 -8,-1 -9,-1 -8,-1 -9,0 -2,0 -1,0 -5,-1 -9,0 -39,-2 -38,-2 -39,-2 -39,-2 -39,-1 -78,-4 -79,-4 -79,-4 -79,-4 -80,-3 -80,-4 -81,-4 -81,-4 -81,-4 -81,-4 -82,-4 -82,-4 -82,-4 -83,-4 -82,-4 -83,-4 -83,-4 -83,-4 -84,-4 -83,-4 -84,-4 -167,-8 -168,-8 -168,-8 -84,-4 -11,-1 -5,0 -3,0 -1,0 -1,0 -2,0 -4,-1 -8,0 -9,0 -9,0 -8,0 -9,1 -9,1 -8,1 -9,1 -9,2 -9,2 -8,3 -9,2 -8,3 -9,4 -8,3 -8,4 -8,4 -8,4 -8,5 -7,5 -8,5 -7,5 -7,5 -7,6 -6,6 -7,6 -6,6 -6,7 -5,6 -6,7 -5,7 -5,7 -5,7 -4,7 -4,7 -4,8 -4,8 -4,7 -3,9 -4,8 -2,8 -3,9 -2,8 -3,9 -1,9 -2,9 -1,9 -1,9 -1,9 0,9 0,9 0,9 1,8 1,9 1,9 1,9 2,9 2,8 2,9 3,8 2,8 3,9 4,7 3,8 2,4 1,2 0,1 2,2 5,9 10,17 10,18 11,17 10,17 10,17 9,17 10,17 10,17 9,16 10,17 9,17 9,16 9,17 9,16 9,16 9,17 9,16 8,16 9,16 8,16 9,16 8,15 8,16 8,16 8,15 8,16 7,15 8,16 7,15 8,15 7,15 7,15 7,15 7,15 7,15 7,15 7,15 7,14 6,15 7,15 6,14 6,14 6,15 6,14 6,14 6,14 6,14 6,14 5,14 6,14 5,14 6,13 5,14 5,14 5,13 5,13 5,14 5,13 5,13 4,13 5,14 4,13 5,13 4,12 4,13 8,26 8,25 8,25 7,25 7,24 6,24 7,24 5,24 6,23 5,23 5,23 5,23 4,22 4,23 4,21 3,22 3,22 3,21 3,21 2,21 2,20 2,20 1,20 1,20 1,20 1,19 0,19 0,19 0,19 0,18 -1,19 -1,18 -1,17 -2,18 -1,17 -2,18 -2,16 -3,17 -2,17 -3,16 -3,16 -4,16 -3,16 -4,15 -4,15 -4,15 -5,15 -4,15 -5,15 -5,14 -5,14 -6,14 -5,13 -6,14 -6,13 -6,13 -7,13 -6,13 -7,13 -7,12 -7,12 -7,12 -7,12 -8,12 -8,11 -7,12 -8,11 -9,11 -8,11 -8,10 -9,11 -9,10 -9,10 -9,10 -9,10 -9,9 -10,10 -9,9 -10,9 -10,9 -9,9 -10,9 -11,9 -10,8 -10,8 -11,8 -10,8 -11,8 -10,8 -11,7 -11,8 -11,7 -11,7 -11,7 -11,7 -12,6 -11,7 -12,6 -11,7 -12,6 -11,6 -12,6 -12,5 -11,6 -12,5 -12,6 -12,5 -12,5 -12,5 -12,5 -12,5 -12,5 -12,4 -12,5 -12,4 -13,4 -12,5 -12,4 -24,7 -25,8 -24,7 -25,6 -24,6 -24,6 -24,6 -24,5 -24,4 -24,5 -24,4 -23,4 -23,3 -23,4 -22,3 -23,2 -22,3 -21,2 -11,1 -10,1 -11,1 -10,1 -10,1 -11,0 -10,1 -10,1 -9,0 -10,1 -10,0 -9,1 -10,0 -9,1 -9,0 -9,0 -9,1 -8,0 -9,0 -8,0 -9,0 -8,1 -8,0 -7,0 -8,0 -7,0 -8,0 -7,0 -7,0 -7,0 -6,-1 -7,0 -6,0 -6,0 -6,0 -6,0 -5,0 -5,0 -5,-1 -5,0 -5,0 -5,0 -4,0 -4,-1 -4,0 -3,0 -4,0 -3,0 -3,-1 -3,0 -2,0 -3,0 -2,0 -1,0 -2,0 -1,-1 -1,0 -1,0 -1,0 -1,0 -9,0 -8,0 -8,0 -9,1 -8,1 -9,1 -8,1 -9,2 -9,2 -8,2 -9,2 -8,3 -9,3 -8,4 -8,3 -8,4 -8,4 -8,5 -8,5 -8,5 -7,5 -7,6 -8,5 -6,6 -7,7 -6,6 -7,7 -6,7 -5,7 -6,7 -5,7 -5,7 -4,8 -5,7 -4,8 -4,8 -3,7 -3,8 -3,8 -3,8 -3,8 -2,8 -2,8 -2,8 -1,8 -1,9 -1,8 -1,9 -1,8 0,9 0,9 1,9 0,9 1,9 1,9 2,9 2,9 2,8 3,9 2,9 3,8 4,9 3,8 4,9 4,8 5,8 4,8 5,7 6,8 5,7 5,7 6,6 6,7 6,6 7,6 6,6 7,6 6,5 7,5 7,5 7,5 7,4 1,0 3,2 6,3 13,6 25,12 50,23 402,191 804,382 201,95 25,12 12,6 7,3 3,2 1,0 1,1 8,4 8,3 8,4 8,3 8,3 9,3 8,2 9,2 8,2 9,2 9,1 9,1 9,1 9,0 9,0 9,0 9,-1 8,0 9,-1 9,-2 9,-1 8,-2 9,-2 8,-3 8,-2 8,-3 2,-1 1,0 1,0 0,-1 2,0 4,-1 38,-10 37,-9 37,-9 37,-8 36,-8 37,-7 36,-8 36,-6 36,-7 36,-6 36,-5 36,-6 35,-4 35,-5 35,-4 35,-4 35,-3 35,-3 34,-3 34,-2 35,-1 34,-2 33,-1 34,0 34,-1 33,0 33,1 33,1 33,1 33,2 32,2 33,3 32,2 32,4 32,3 31,4 32,5 31,4 32,6 31,5 31,6 31,6 30,7 31,7 30,8 30,8 30,8 30,8 30,10 29,9 29,10 30,10 29,10 29,11 28,12 29,12 28,12 28,12 28,13 28,13 28,14 14,7 3,2 2,1 1,0 4,2 8,3 8,3 8,3 8,3 9,3 8,2 9,2 8,1 9,2 9,1 9,1 9,0 9,0 9,0 9,0 9,-1 9,-1 9,-1 9,-2 8,-2 9,-2 9,-2 8,-3 9,-3 8,-3 8,-3 8,-4 8,-4 7,-4 8,-5 7,-4 7,-5 7,-5 7,-5 6,-5 7,-6 6,-6 6,-6 6,-6 6,-7 5,-7 6,-7 5,-7 5,-7 5,-8 4,-8 5,-8 4,-8 3,-8 4,-8 3,-9 3,-8 3,-9 2,-9 2,-8 2,-9 1,-9 1,-9 1,-9 1,-8 0,-9 0,-9 0,-8 -1,-9 0,-8 -1,-9 -2,-8 -1,-8 -2,-9 -2,-8 -3,-8 -2,-9 -3,-8 -3,-8 -4,-8 -4,-8 -4,-8 -4,-8 -5,-8 -4,-7 -6,-8 -5,-7 -6,-7 -5,-7 -6,-7 -7,-6 -6,-6 -7,-6 -7,-6 -7,-6 -7,-5 -7,-5 -8,-5 -7,-4 -8,-4 -8,-4 -7,-4 -8,-4 -8,-3 -8,-3 -2,0 -1,-1 -2,-1 -4,-1 -15,-7 -29,-12 -30,-14 -29,-13 -29,-13 -15,-7 -14,-7 -15,-7 -14,-8 -14,-7 -15,-8 -14,-7 -14,-8 -14,-8 -14,-9 -14,-8 -14,-9 -14,-9 -13,-9 -14,-9 -13,-9 -14,-10 -13,-10 -13,-10 -13,-10 -13,-10 -13,-11 -13,-10 -13,-11 -12,-11 -13,-11 -12,-12 -12,-11 -12,-12 -12,-11 -12,-12 -12,-12 -11,-13 -12,-12 -11,-12 -11,-13 -11,-13 -11,-13 -11,-13 -11,-13 -10,-13 -11,-13 -10,-14 -10,-13 -10,-14 -10,-14 -9,-14 -10,-14 -9,-14 -9,-14 -9,-15 -9,-14 -9,-15 -8,-14 -8,-15 -9,-15 -7,-15 -8,-14 -8,-16 -7,-15 -8,-15 -7,-15 -6,-15 -7,-16 -7,-15 -6,-16 -6,-15 -6,-16 -6,-16 -5,-15 -5,-16 -6,-16 -4,-16 -5,-16 -5,-16 -4,-16 -4,-16 -4,-16 -3,-16 -4,-16 -3,-16 -3,-16 -3,-16 -2,-16 -2,-17 -2,-16 -2,-16 -2,-16 -1,-16 -1,-17 -1,-16 -1,-16 0,-16 0,-17 0,-16 0,-16 1,-16 0,-16 1,-17 2,-16 1,-16 1,-16 2,-16 2,-17 2,-16 2,-16 3,-16 3,-16 2,-16 3,-17 4,-16 3,-16 4,-16 3,-16 4,-16 4,-16 4,-16 5,-16 4,-16 5,-16 5,-16 5,-16 5,-16 5,-16 5,-16 6,-15 5,-16 6,-16 6,-16 6,-16 6,-15 6,-16 6,-16 6,-15 14,-31 13,-32 14,-30 14,-31 14,-31 15,-31 15,-30 15,-30 16,-30 16,-30 16,-30 16,-30 16,-29 17,-30 17,-29 17,-29 17,-29 17,-29 18,-29 18,-29 18,-29 18,-28 19,-29 18,-29 19,-28 19,-29 19,-28 20,-29 20,-28 19,-28 20,-29 21,-28 20,-28 21,-29 21,-28 21,-28 21,-29 21,-28 22,-29 21,-28 22,-29 22,-29 23,-28 22,-29 23,-29 22,-29 23,-29 23,-29 24,-30"
   style="fill:none;stroke:#ff0000;stroke-width:29.17270876999999984;stroke-linecap:round;stroke-linejoin:round;stroke-miterlimit:10;stroke-opacity:1;stroke-dasharray:none"
   id="path78"
   inkscape:connector-curvature="0" /><path
   d="m 841,4206 151,13"
   style="fill:none;stroke:#000000;stroke-width:6;stroke-linecap:round;stroke-linejoin:round;stroke-miterlimit:10;stroke-opacity:1;stroke-dasharray:none"
   id="path80"
   inkscape:connector-curvature="0" /><text
   transform="matrix(0.99589,0.09057,0.09057,-0.99589,846,4217)"
   id="text82"><tspan
     style="font-size:53.99999619px;font-variant:normal;font-weight:normal;writing-mode:lr-tb;fill:#000000;fill-opacity:1;fill-rule:nonzero;stroke:none;font-family:Arial;-inkscape-font-specification:ArialMT"
     x="0 38.987995 69.011993"
     y="0"
     sodipodi:role="line"
     id="tspan84">R30</tspan></text>



<path
   d="m 1496,4262 -465,-40"
   style="fill:none;stroke:#000000;stroke-width:6;stroke-linecap:round;stroke-linejoin:round;stroke-miterlimit:10;stroke-opacity:1;stroke-dasharray:none"
   id="path86"
   inkscape:connector-curvature="0" /><g
   id="g88"><path
     d="m 992,4225 1,-13 38,10 -39,3 z"
     style="fill:#000000;fill-opacity:1;fill-rule:nonzero;stroke:none"
     id="path90"
     inkscape:connector-curvature="0" /></g><path
   d="m 5919,5452 -135,-70"
   style="fill:none;stroke:#000000;stroke-width:6;stroke-linecap:round;stroke-linejoin:round;stroke-miterlimit:10;stroke-opacity:1;stroke-dasharray:none"
   id="path92"
   inkscape:connector-curvature="0" /><text
   transform="matrix(0.88835,0.45918,0.45918,-0.88835,5819,5412)"
   id="text94"><tspan
     style="font-size:54.00032425px;font-variant:normal;font-weight:normal;writing-mode:lr-tb;fill:#000000;fill-opacity:1;fill-rule:nonzero;stroke:none;font-family:Arial;-inkscape-font-specification:ArialMT"
     x="0 38.988235 69.012413"
     y="0"
     sodipodi:role="line"
     id="tspan96">R30</tspan></text>



<path
   d="m 5335,5150 415,214"
   style="fill:none;stroke:#000000;stroke-width:6;stroke-linecap:round;stroke-linejoin:round;stroke-miterlimit:10;stroke-opacity:1;stroke-dasharray:none"
   id="path98"
   inkscape:connector-curvature="0" /><g
   id="g100"><path
     d="m 5781,5388 6,-12 -37,-12 31,24 z"
     style="fill:#000000;fill-opacity:1;fill-rule:nonzero;stroke:none"
     id="path102"
     inkscape:connector-curvature="0" /></g><path
   d="m 5798,5062 193,-37"
   style="fill:none;stroke:#000000;stroke-width:6;stroke-linecap:round;stroke-linejoin:round;stroke-miterlimit:10;stroke-opacity:1;stroke-dasharray:none"
   id="path104"
   inkscape:connector-curvature="0" /><text
   transform="matrix(0.98265,-0.18549,-0.18549,-0.98265,5807,5078)"
   id="text106"><tspan
     style="font-size:54.00020599px;font-variant:normal;font-weight:normal;writing-mode:lr-tb;fill:#000000;fill-opacity:1;fill-rule:nonzero;stroke:none;font-family:Arial;-inkscape-font-specification:ArialMT"
     x="0 38.988148 69.01226 99.036377 114.04843"
     y="0"
     sodipodi:role="line"
     id="tspan108">R45,4</tspan></text>



<g
   id="g110"><path
     d="m 5992,5031 -2,-13 39,0 -37,13 z"
     style="fill:#000000;fill-opacity:1;fill-rule:nonzero;stroke:none"
     id="path112"
     inkscape:connector-curvature="0" /></g><text
   transform="matrix(1,0,0,-1,3032,4679)"
   id="text114"><tspan
     style="font-size:54px;font-variant:normal;font-weight:normal;writing-mode:lr-tb;fill:#000000;fill-opacity:1;fill-rule:nonzero;stroke:none;font-family:Arial;-inkscape-font-specification:ArialMT"
     x="0 38.987999 77.975998 119.988 156.006 200.98801 243 279.01801 321.03 354.02399 369.03601 399.06 429.08401 459.108"
     y="0"
     sodipodi:role="line"
     id="tspan116">CCOSMOBOT 2013</tspan></text>



<text
   transform="matrix(1,0,0,-1,3030,4614)"
   id="text118"><tspan
     style="font-size:54px;font-variant:normal;font-weight:normal;writing-mode:lr-tb;fill:#000000;fill-opacity:1;fill-rule:nonzero;stroke:none;font-family:Arial;-inkscape-font-specification:ArialMT"
     x="0 36.018002 51.029999 87.047997 120.042 156.06 171.07201 207.09 243.108 273.13199 315.14401 354.13199 369.14401 405.16199 438.15601 474.17401 510.19199 525.20398 561.22198 597.23999 636.22803 672.24597 687.258 729.27002 768.258 783.27002"
     y="0"
     sodipodi:role="line"
     id="tspan120">PISTA VELOCISTAS VERSION 4</tspan></text>



<path
   d="m 5318,581 14,-321"
   style="fill:none;stroke:#000000;stroke-width:6;stroke-linecap:round;stroke-linejoin:round;stroke-miterlimit:10;stroke-opacity:1;stroke-dasharray:none"
   id="path122"
   inkscape:connector-curvature="0" /><path
   d="m 2808,475 13,-321"
   style="fill:none;stroke:#000000;stroke-width:6;stroke-linecap:round;stroke-linejoin:round;stroke-miterlimit:10;stroke-opacity:1;stroke-dasharray:none"
   id="path124"
   inkscape:connector-curvature="0" /><path
   d="M 5292,278 2859,175"
   style="fill:none;stroke:#000000;stroke-width:6;stroke-linecap:round;stroke-linejoin:round;stroke-miterlimit:10;stroke-opacity:1;stroke-dasharray:none"
   id="path126"
   inkscape:connector-curvature="0" /><g
   id="g128"><path
     d="m 5292,285 0,-13 39,8 -39,5 z"
     style="fill:#000000;fill-opacity:1;fill-rule:nonzero;stroke:none"
     id="path130"
     inkscape:connector-curvature="0" /></g><g
   id="g132"><path
     d="m 2859,182 1,-13 -40,5 39,8 z"
     style="fill:#000000;fill-opacity:1;fill-rule:nonzero;stroke:none"
     id="path134"
     inkscape:connector-curvature="0" /></g><text
   transform="matrix(0.99911,0.04217,0.04217,-0.99911,3979,240)"
   id="text136"><tspan
     style="font-size:53.99997711px;font-variant:normal;font-weight:normal;writing-mode:lr-tb;fill:#000000;fill-opacity:1;fill-rule:nonzero;stroke:none;font-family:Arial;-inkscape-font-specification:ArialMT"
     x="0 30.023987 60.047974 90.07196 105.08395 135.10794"
     y="0"
     sodipodi:role="line"
     id="tspan138">161,41</tspan></text>



<path
   d="m 2401,3315 -81,143"
   style="fill:none;stroke:#000000;stroke-width:6;stroke-linecap:round;stroke-linejoin:round;stroke-miterlimit:10;stroke-opacity:1;stroke-dasharray:none"
   id="path140"
   inkscape:connector-curvature="0" /><path
   d="m 1951,3063 -80,143"
   style="fill:none;stroke:#000000;stroke-width:6;stroke-linecap:round;stroke-linejoin:round;stroke-miterlimit:10;stroke-opacity:1;stroke-dasharray:none"
   id="path142"
   inkscape:connector-curvature="0" /><path
   d="M 2296,3422 1914,3208"
   style="fill:none;stroke:#000000;stroke-width:6;stroke-linecap:round;stroke-linejoin:round;stroke-miterlimit:10;stroke-opacity:1;stroke-dasharray:none"
   id="path144"
   inkscape:connector-curvature="0" /><g
   id="g146"><path
     d="m 2293,3428 6,-12 31,25 -37,-13 z"
     style="fill:#000000;fill-opacity:1;fill-rule:nonzero;stroke:none"
     id="path148"
     inkscape:connector-curvature="0" /></g><g
   id="g150"><path
     d="m 1911,3214 6,-12 -37,-13 31,25 z"
     style="fill:#000000;fill-opacity:1;fill-rule:nonzero;stroke:none"
     id="path152"
     inkscape:connector-curvature="0" /></g><text
   transform="matrix(0.87449,0.48504,0.48504,-0.87449,2040,3299)"
   id="text154"><tspan
     style="font-size:53.99990845px;font-variant:normal;font-weight:normal;writing-mode:lr-tb;fill:#000000;fill-opacity:1;fill-rule:nonzero;stroke:none;font-family:Arial;-inkscape-font-specification:ArialMT"
     x="0 30.023949 60.047897 75.059868 105.08382"
     y="0"
     sodipodi:role="line"
     id="tspan156">33,11</tspan></text>



<path
   d="m 1711,2684 156,0 0,0 0,312 -124,-146"
   style="fill:none;stroke:#000000;stroke-width:6;stroke-linecap:round;stroke-linejoin:round;stroke-miterlimit:10;stroke-opacity:1;stroke-dasharray:none"
   id="path158"
   inkscape:connector-curvature="0" /><path
   d="m 1867,2996 136,-131"
   style="fill:none;stroke:#000000;stroke-width:6;stroke-linecap:round;stroke-linejoin:round;stroke-miterlimit:10;stroke-opacity:1;stroke-dasharray:none"
   id="path160"
   inkscape:connector-curvature="0" /><path
   d="m 5937,4139 -66,141"
   style="fill:none;stroke:#000000;stroke-width:6;stroke-linecap:round;stroke-linejoin:round;stroke-miterlimit:10;stroke-opacity:1;stroke-dasharray:none"
   id="path162"
   inkscape:connector-curvature="0" /><path
   d="m 6143,4810 0,0"
   style="fill:none;stroke:#000000;stroke-width:6;stroke-linecap:round;stroke-linejoin:round;stroke-miterlimit:10;stroke-opacity:1;stroke-dasharray:none"
   id="path164"
   inkscape:connector-curvature="0" /><path
   d="m 5871,4280 -282,-132 185,-50"
   style="fill:none;stroke:#000000;stroke-width:6;stroke-linecap:round;stroke-linejoin:round;stroke-miterlimit:10;stroke-opacity:1;stroke-dasharray:none"
   id="path166"
   inkscape:connector-curvature="0" /><path
   d="m 5589,4148 65,178"
   style="fill:none;stroke:#000000;stroke-width:6;stroke-linecap:round;stroke-linejoin:round;stroke-miterlimit:10;stroke-opacity:1;stroke-dasharray:none"
   id="path168"
   inkscape:connector-curvature="0" /></g></g><rect
   style="fill:#00ff00;fill-opacity:1;stroke:#0000ff;stroke-width:4.63549376;stroke-linecap:butt;stroke-linejoin:round;stroke-miterlimit:10;stroke-opacity:1;stroke-dasharray:none"
   id="rect3833"
   width="463.03732"
   height="308.30948"
   x="4069.9612"
   y="-4851.4697"
   transform="scale(1,-1)" /><rect
   style="opacity:0.53281854;fill:#00ff00;fill-opacity:1;stroke:#0000ff;stroke-width:4.63549376;stroke-linecap:butt;stroke-linejoin:round;stroke-miterlimit:10;stroke-opacity:1;stroke-dasharray:none"
   id="rect3833-5"
   width="463.03732"
   height="308.30945"
   x="6411.396"
   y="-3679.4031"
   transform="matrix(0.94114578,0.33800091,0.33800091,-0.94114578,0,0)"
   inkscape:transform-center-x="-419.77754"
   inkscape:transform-center-y="-150.75844" /><rect
   style="opacity:0.53281854;fill:#00ff00;fill-opacity:1;stroke:#0000ff;stroke-width:4.63549376;stroke-linecap:butt;stroke-linejoin:round;stroke-miterlimit:10;stroke-opacity:1;stroke-dasharray:none"
   id="rect3833-5-8"
   width="463.03732"
   height="308.30942"
   x="-7048.3765"
   y="1065.3135"
   transform="matrix(-0.86039026,-0.50963575,-0.50963575,0.86039026,0,0)"
   inkscape:transform-center-x="167.35034"
   inkscape:transform-center-y="-99.126738" /><rect
   style="opacity:0.53281854;fill:#00ff00;fill-opacity:1;stroke:#0000ff;stroke-width:4.63549376;stroke-linecap:butt;stroke-linejoin:round;stroke-miterlimit:10;stroke-opacity:1;stroke-dasharray:none"
   id="rect3833-5-9"
   width="463.03732"
   height="308.30945"
   x="-7192.4751"
   y="1563.7166"
   transform="matrix(-0.89440948,-0.44724902,-0.44724902,0.89440948,0,0)"
   inkscape:transform-center-x="173.96676"
   inkscape:transform-center-y="-86.991968" /><rect
   style="opacity:0.53281854;fill:#00ff00;fill-opacity:1;stroke:#0000ff;stroke-width:4.63549376;stroke-linecap:butt;stroke-linejoin:round;stroke-miterlimit:10;stroke-opacity:1;stroke-dasharray:none"
   id="rect3833-5-4"
   width="463.03732"
   height="308.30945"
   x="-7626.1987"
   y="-539.09784"
   transform="matrix(-0.72684521,-0.68680131,-0.68680131,0.72684521,0,0)"
   inkscape:transform-center-x="141.37511"
   inkscape:transform-center-y="-133.58583" /><rect
   style="opacity:0.53281854;fill:#00ff00;fill-opacity:1;stroke:#0000ff;stroke-width:4.63549376;stroke-linecap:butt;stroke-linejoin:round;stroke-miterlimit:10;stroke-opacity:1;stroke-dasharray:none"
   id="rect3833-5-3"
   width="463.03732"
   height="308.30945"
   x="-6622.3896"
   y="-4311.7397"
   transform="matrix(-0.27521044,-0.96138401,-0.96138401,0.27521044,0,0)"
   inkscape:transform-center-x="53.529497"
   inkscape:transform-center-y="-186.99406" /><rect
   style="opacity:0.53281854;fill:#00ff00;fill-opacity:1;stroke:#0000ff;stroke-width:4.63549376;stroke-linecap:butt;stroke-linejoin:round;stroke-miterlimit:10;stroke-opacity:1;stroke-dasharray:none"
   id="rect3833-5-37"
   width="463.03732"
   height="308.30945"
   x="-4140.3125"
   y="-6858.2549"
   transform="matrix(0.20402442,-0.9789658,-0.9789658,-0.20402442,0,0)"
   inkscape:transform-center-x="-39.684019"
   inkscape:transform-center-y="-190.41322" /><rect
   style="opacity:0.53281854;fill:#00ff00;fill-opacity:1;stroke:#0000ff;stroke-width:4.63549376;stroke-linecap:butt;stroke-linejoin:round;stroke-miterlimit:10;stroke-opacity:1;stroke-dasharray:none"
   id="rect3833-5-7"
   width="463.03732"
   height="308.30945"
   x="-1844.6349"
   y="-7820.2295"
   transform="matrix(0.51980826,-0.85428296,-0.85428296,-0.51980826,0,0)"
   inkscape:transform-center-x="-101.10563"
   inkscape:transform-center-y="-166.16138" /><rect
   style="opacity:0.53281854;fill:#00ff00;fill-opacity:1;stroke:#0000ff;stroke-width:4.63549376;stroke-linecap:butt;stroke-linejoin:round;stroke-miterlimit:10;stroke-opacity:1;stroke-dasharray:none"
   id="rect3833-5-80"
   width="463.03732"
   height="308.30945"
   x="1427.6538"
   y="-7812.3096"
   transform="matrix(0.83576328,-0.54908992,-0.54908992,-0.83576328,0,0)"
   inkscape:transform-center-x="-162.55967"
   inkscape:transform-center-y="-106.79972" /><rect
   style="opacity:0.53281854;fill:#00ff00;fill-opacity:1;stroke:#0000ff;stroke-width:4.63549376;stroke-linecap:butt;stroke-linejoin:round;stroke-miterlimit:10;stroke-opacity:1;stroke-dasharray:none"
   id="rect3833-5-42"
   width="463.03732"
   height="308.30945"
   x="3694.5374"
   y="-6858.2754"
   transform="matrix(0.97125743,-0.23803151,-0.23803151,-0.97125743,0,0)"
   inkscape:transform-center-x="-188.91386"
   inkscape:transform-center-y="-46.298156" /><rect
   style="opacity:0.53281854;fill:#00ff00;fill-opacity:1;stroke:#0000ff;stroke-width:4.63549376;stroke-linecap:butt;stroke-linejoin:round;stroke-miterlimit:10;stroke-opacity:1;stroke-dasharray:none"
   id="rect3833-5-2"
   width="463.03732"
   height="308.30945"
   x="5577.1797"
   y="-5174.5176"
   transform="matrix(0.99478514,0.10199275,0.10199275,-0.99478514,0,0)"
   inkscape:transform-center-x="-193.48971"
   inkscape:transform-center-y="19.837958" /><text
   xml:space="preserve"
   style="font-size:62.79549026px;font-style:italic;font-weight:normal;line-height:125%;letter-spacing:0px;word-spacing:0px;fill:#000000;fill-opacity:1;stroke:none;font-family:Sans;-inkscape-font-specification:Sans Italic"
   x="4546.6973"
   y="-4688.6626"
   id="text5684"
   sodipodi:linespacing="125%"
   transform="scale(1,-1)"><tspan
     sodipodi:role="line"
     id="tspan5686"
     x="4546.6973"
     y="-4688.6626">20cm</tspan></text>

<text
   xml:space="preserve"
   style="font-size:62.79549026px;font-style:italic;font-weight:normal;line-height:125%;letter-spacing:0px;word-spacing:0px;fill:#000000;fill-opacity:1;stroke:none;font-family:Sans;-inkscape-font-specification:Sans Italic"
   x="4201.519"
   y="-4471.2988"
   id="text5684-0"
   sodipodi:linespacing="125%"
   transform="scale(1,-1)"><tspan
     sodipodi:role="line"
     id="tspan5686-4"
     x="4201.519"
     y="-4471.2988">30cm</tspan></text>

<rect
   style="opacity:0.53281854;fill:#ffff00;fill-opacity:1;stroke:#0000ff;stroke-width:4.63549376;stroke-linecap:butt;stroke-linejoin:round;stroke-miterlimit:10;stroke-opacity:1;stroke-dasharray:none"
   id="rect5729"
   width="15.472781"
   height="113.46706"
   x="4128.394"
   y="-4331.3916"
   transform="scale(1,-1)" /><rect
   style="opacity:0.53281854;fill:#ffff00;fill-opacity:1;stroke:#0000ff;stroke-width:4.63549376;stroke-linecap:butt;stroke-linejoin:round;stroke-miterlimit:10;stroke-opacity:1;stroke-dasharray:none"
   id="rect5729-8"
   width="15.472781"
   height="113.46706"
   x="4120.7749"
   y="-5409.9551"
   transform="scale(1,-1)" /><path
   style="fill:#000000;stroke:#0004ff;stroke-width:5.06814008000000005;stroke-linecap:butt;stroke-linejoin:miter;stroke-opacity:1;stroke-miterlimit:4;stroke-dasharray:none;fill-opacity:1;opacity:0.35521236"
   d="m 4146.4715,4324.0984 169.5547,23.8123 43.608,0 0,-146.6032 -45.0425,-0.2869 -164.6775,22.0909 -2.2951,1.7214 z"
   id="path3096"
   inkscape:connector-curvature="0"
   sodipodi:nodetypes="cccccccc" /><rect
   style="opacity:0.53281854;fill:#ffff00;fill-opacity:1;stroke:#0000ff;stroke-width:4.63549376;stroke-linecap:butt;stroke-linejoin:round;stroke-miterlimit:10;stroke-opacity:1;stroke-dasharray:none"
   id="rect3098"
   width="64.551292"
   height="28.689461"
   x="4297.665"
   y="-4377.7476"
   transform="scale(1,-1)" /><rect
   style="opacity:0.53281854;fill:#ffff00;fill-opacity:1;stroke:#0000ff;stroke-width:4.63549376;stroke-linecap:butt;stroke-linejoin:round;stroke-miterlimit:10;stroke-opacity:1;stroke-dasharray:none"
   id="rect3098-3"
   width="64.551292"
   height="28.689461"
   x="4298.1069"
   y="-4198.3994"
   transform="scale(1,-1)" /><g
   id="g3941"
   transform="matrix(0.91359317,0.40662946,-0.40662946,0.91359317,-454.63354,89.433679)"><rect
     transform="scale(1,-1)"
     y="-3570.1365"
     x="3750.7649"
     height="113.46705"
     width="15.472781"
     id="rect5729-3"
     style="opacity:0.53281854;fill:#ffff00;fill-opacity:1;stroke:#0000ff;stroke-width:4.63549376;stroke-linecap:butt;stroke-linejoin:round;stroke-miterlimit:10;stroke-opacity:1;stroke-dasharray:none" /><path
     sodipodi:nodetypes="cccccccc"
     inkscape:connector-curvature="0"
     id="path3096-3"
     d="m 3768.8423,3562.8431 169.5547,23.8123 43.608,0 0,-146.6032 -45.0425,-0.2869 -164.6775,22.0909 -2.2951,1.7214 z"
     style="opacity:0.3552124;fill:#000000;fill-opacity:1;stroke:#0004ff;stroke-width:5.06813955;stroke-linecap:butt;stroke-linejoin:miter;stroke-miterlimit:4;stroke-opacity:1;stroke-dasharray:none" /><rect
     transform="scale(1,-1)"
     y="-3616.4924"
     x="3920.0359"
     height="28.689461"
     width="64.551292"
     id="rect3098-0"
     style="opacity:0.53281854;fill:#ffff00;fill-opacity:1;stroke:#0000ff;stroke-width:4.63549376;stroke-linecap:butt;stroke-linejoin:round;stroke-miterlimit:10;stroke-opacity:1;stroke-dasharray:none" /><rect
     transform="scale(1,-1)"
     y="-3437.1443"
     x="3920.4778"
     height="28.689461"
     width="64.551292"
     id="rect3098-3-8"
     style="opacity:0.53281854;fill:#ffff00;fill-opacity:1;stroke:#0000ff;stroke-width:4.63549376;stroke-linecap:butt;stroke-linejoin:round;stroke-miterlimit:10;stroke-opacity:1;stroke-dasharray:none" /></g></g></g></svg>